<svg version="1.2" xmlns="http://www.w3.org/2000/svg" viewBox="0 0 1024 1024" width="1024" height="1024">
	<style>
		.s0 { fill: #252525 } 
		.s1 { fill: #e9d7b0 } 
	</style>
	<path class="s0" d="m2057 0v1030h-3090v-1030z"/>
	<path id="Shape 1" fill-rule="evenodd" class="s0" d="m512 1024.25c-283.14 0-512-228.86-512-512 0-283.14 228.86-512 512-512 283.14 0 512 228.86 512 512 0 283.14-228.86 512-512 512z"/>
	<path class="s1" d="m344.55 171.26c105.8-43 228.47-43.08 334.27 0 122.67 46.96 224.74 168.68 213.97 304.73-5.86 112.29-87.18 207.95-185.38 256.1-23.05 7.76-13.86 35.16-6.89 51.4 7.6 27.16 25.66 61.29 2.61 85.76-25.02 24.71-70.72 18.06-91.7-9.34-20.91 32.86-77.37 33.1-98.36 0.47-24.23 30.57-79.03 33.89-101.2-0.71-22.18 30.88-77.06 35.16-97.88 0.95-17.27-41.26 26.84-82.12 12.98-121.88-39.83-22.96-80.45-46.17-112.13-80.22-67.15-67.15-100.73-168.44-77.53-261.64 23.76-105.01 109.6-186.58 207.24-225.62zm-59.47 178.65c-0.95 76.5-0.39 153-0.31 229.58-2.3 11.32 13.22 19.72 21.77 12.67 66.44-38.88 133.6-76.89 199.09-117.2 0.55-3.41 1.5-10.14 1.98-13.54-5.62-8.08-15.44-11.41-23.28-16.71-60.74-35.16-120.93-71.28-181.91-105.96l-7.91-0.16c-2.38 2.85-7.05 8.47-9.43 11.32zm242.25 11.96c-0.87 2.77-2.62 8.16-3.57 10.85 39.36 68.9 78.17 138.51 119.82 205.9 3.72 0.32 11.01 0.87 14.73 1.19 42.05-64.62 78.16-133.6 117.6-200.04 9.26-9.74-1.9-26.21-14.26-22.97-76.73 0.56-153.55-1.34-230.13 0.95zm-61.84 352.48c31.12 0.72 62.32 0.4 93.44 0.16l2.22-6.25c-15.36-26.61-30.33-53.46-46.49-79.59-19.71 25.82-37.69 55.27-49.17 85.68z"/>
	<g id="Layer 1">
	</g>
</svg>